<mxfile host="app.diagrams.net" modified="2024-06-19T09:58:32.673Z" agent="Mozilla/5.0 (Macintosh; Intel Mac OS X 10_15_7) AppleWebKit/537.36 (KHTML, like Gecko) Chrome/125.0.0.0 Safari/537.36" etag="2GNJ3RhkO4NiwLUmYOXf" version="24.5.5" type="github">
  <diagram name="第 1 页" id="ZcbpBrVwWXByzgcS7Osu">
    <mxGraphModel dx="1526" dy="2459" grid="1" gridSize="10" guides="1" tooltips="1" connect="1" arrows="1" fold="1" page="1" pageScale="1" pageWidth="827" pageHeight="1169" math="1" shadow="0">
      <root>
        <mxCell id="0" />
        <mxCell id="1" parent="0" />
        <mxCell id="pfrxggrQu1NVtK-rekbp-57" value="" style="shape=parallelogram;perimeter=parallelogramPerimeter;whiteSpace=wrap;html=1;fixedSize=1;size=39;shadow=1;fillColor=#C5E0B3;strokeWidth=0.5;" vertex="1" parent="1">
          <mxGeometry x="2360" y="277" width="120" height="40" as="geometry" />
        </mxCell>
        <mxCell id="pfrxggrQu1NVtK-rekbp-58" value="" style="shape=parallelogram;perimeter=parallelogramPerimeter;whiteSpace=wrap;html=1;fixedSize=1;size=39;shadow=1;fillColor=#C5E0B3;strokeWidth=0.5;" vertex="1" parent="1">
          <mxGeometry x="2440" y="277" width="120" height="40" as="geometry" />
        </mxCell>
        <mxCell id="pfrxggrQu1NVtK-rekbp-59" value="" style="shape=parallelogram;perimeter=parallelogramPerimeter;whiteSpace=wrap;html=1;fixedSize=1;size=39;shadow=1;fillColor=#C5E0B3;strokeWidth=0.5;" vertex="1" parent="1">
          <mxGeometry x="2520" y="277" width="120" height="40" as="geometry" />
        </mxCell>
        <mxCell id="pfrxggrQu1NVtK-rekbp-60" value="" style="shape=parallelogram;perimeter=parallelogramPerimeter;whiteSpace=wrap;html=1;fixedSize=1;size=39;shadow=1;fillColor=#C5E0B3;strokeWidth=0.5;" vertex="1" parent="1">
          <mxGeometry x="2600" y="277" width="120" height="40" as="geometry" />
        </mxCell>
        <mxCell id="pfrxggrQu1NVtK-rekbp-61" value="" style="shape=parallelogram;perimeter=parallelogramPerimeter;whiteSpace=wrap;html=1;fixedSize=1;size=39;shadow=1;fillColor=#C5E0B3;strokeWidth=0.5;" vertex="1" parent="1">
          <mxGeometry x="2680" y="277" width="120" height="40" as="geometry" />
        </mxCell>
        <mxCell id="pfrxggrQu1NVtK-rekbp-62" value="" style="shape=parallelogram;perimeter=parallelogramPerimeter;whiteSpace=wrap;html=1;fixedSize=1;size=39;shadow=1;fillColor=#C5E0B3;strokeWidth=0.5;" vertex="1" parent="1">
          <mxGeometry x="2760" y="277" width="120" height="40" as="geometry" />
        </mxCell>
        <mxCell id="pfrxggrQu1NVtK-rekbp-63" value="" style="shape=parallelogram;perimeter=parallelogramPerimeter;whiteSpace=wrap;html=1;fixedSize=1;size=39;shadow=1;fillColor=#C5E0B3;strokeWidth=0.5;" vertex="1" parent="1">
          <mxGeometry x="2840" y="277" width="120" height="40" as="geometry" />
        </mxCell>
        <mxCell id="pfrxggrQu1NVtK-rekbp-64" value="" style="shape=parallelogram;perimeter=parallelogramPerimeter;whiteSpace=wrap;html=1;fixedSize=1;size=39;shadow=1;fillColor=#C5E0B3;strokeWidth=0.5;" vertex="1" parent="1">
          <mxGeometry x="2320" y="317" width="120" height="40" as="geometry" />
        </mxCell>
        <mxCell id="pfrxggrQu1NVtK-rekbp-65" value="" style="shape=parallelogram;perimeter=parallelogramPerimeter;whiteSpace=wrap;html=1;fixedSize=1;size=39;shadow=1;fillColor=#C5E0B3;strokeWidth=0.5;" vertex="1" parent="1">
          <mxGeometry x="2400" y="317" width="120" height="40" as="geometry" />
        </mxCell>
        <mxCell id="pfrxggrQu1NVtK-rekbp-66" value="" style="shape=parallelogram;perimeter=parallelogramPerimeter;whiteSpace=wrap;html=1;fixedSize=1;size=39;shadow=1;fillColor=#C5E0B3;strokeWidth=0.5;" vertex="1" parent="1">
          <mxGeometry x="2480" y="317" width="120" height="40" as="geometry" />
        </mxCell>
        <mxCell id="pfrxggrQu1NVtK-rekbp-67" value="" style="shape=parallelogram;perimeter=parallelogramPerimeter;whiteSpace=wrap;html=1;fixedSize=1;size=39;shadow=1;fillColor=#C5E0B3;strokeWidth=0.5;" vertex="1" parent="1">
          <mxGeometry x="2560" y="317" width="120" height="40" as="geometry" />
        </mxCell>
        <mxCell id="pfrxggrQu1NVtK-rekbp-68" value="" style="shape=parallelogram;perimeter=parallelogramPerimeter;whiteSpace=wrap;html=1;fixedSize=1;size=39;shadow=1;fillColor=#C5E0B3;strokeWidth=0.5;" vertex="1" parent="1">
          <mxGeometry x="2640" y="317" width="120" height="40" as="geometry" />
        </mxCell>
        <mxCell id="pfrxggrQu1NVtK-rekbp-69" value="" style="shape=parallelogram;perimeter=parallelogramPerimeter;whiteSpace=wrap;html=1;fixedSize=1;size=39;shadow=1;fillColor=#C5E0B3;strokeWidth=0.5;" vertex="1" parent="1">
          <mxGeometry x="2720" y="317" width="120" height="40" as="geometry" />
        </mxCell>
        <mxCell id="pfrxggrQu1NVtK-rekbp-70" value="" style="shape=parallelogram;perimeter=parallelogramPerimeter;whiteSpace=wrap;html=1;fixedSize=1;size=39;shadow=1;fillColor=#C5E0B3;strokeWidth=0.5;" vertex="1" parent="1">
          <mxGeometry x="2800" y="317" width="120" height="40" as="geometry" />
        </mxCell>
        <mxCell id="pfrxggrQu1NVtK-rekbp-71" value="" style="shape=parallelogram;perimeter=parallelogramPerimeter;whiteSpace=wrap;html=1;fixedSize=1;size=39;shadow=1;fillColor=#C5E0B3;strokeWidth=0.5;" vertex="1" parent="1">
          <mxGeometry x="2280" y="357" width="120" height="40" as="geometry" />
        </mxCell>
        <mxCell id="pfrxggrQu1NVtK-rekbp-72" value="" style="shape=parallelogram;perimeter=parallelogramPerimeter;whiteSpace=wrap;html=1;fixedSize=1;size=39;shadow=1;fillColor=#C5E0B3;strokeWidth=0.5;" vertex="1" parent="1">
          <mxGeometry x="2360" y="357" width="120" height="40" as="geometry" />
        </mxCell>
        <mxCell id="pfrxggrQu1NVtK-rekbp-73" value="" style="shape=parallelogram;perimeter=parallelogramPerimeter;whiteSpace=wrap;html=1;fixedSize=1;size=39;shadow=1;fillColor=#C5E0B3;strokeWidth=0.5;" vertex="1" parent="1">
          <mxGeometry x="2440" y="357" width="120" height="40" as="geometry" />
        </mxCell>
        <mxCell id="pfrxggrQu1NVtK-rekbp-74" value="" style="shape=parallelogram;perimeter=parallelogramPerimeter;whiteSpace=wrap;html=1;fixedSize=1;size=39;shadow=1;fillColor=#C5E0B3;strokeWidth=0.5;" vertex="1" parent="1">
          <mxGeometry x="2520" y="357" width="120" height="40" as="geometry" />
        </mxCell>
        <mxCell id="pfrxggrQu1NVtK-rekbp-75" value="" style="shape=parallelogram;perimeter=parallelogramPerimeter;whiteSpace=wrap;html=1;fixedSize=1;size=39;shadow=1;fillColor=#C5E0B3;strokeWidth=0.5;" vertex="1" parent="1">
          <mxGeometry x="2600" y="357" width="120" height="40" as="geometry" />
        </mxCell>
        <mxCell id="pfrxggrQu1NVtK-rekbp-76" value="" style="shape=parallelogram;perimeter=parallelogramPerimeter;whiteSpace=wrap;html=1;fixedSize=1;size=39;shadow=1;fillColor=#C5E0B3;strokeWidth=0.5;" vertex="1" parent="1">
          <mxGeometry x="2680" y="357" width="120" height="40" as="geometry" />
        </mxCell>
        <mxCell id="pfrxggrQu1NVtK-rekbp-77" value="" style="shape=parallelogram;perimeter=parallelogramPerimeter;whiteSpace=wrap;html=1;fixedSize=1;size=39;shadow=1;fillColor=#C5E0B3;strokeWidth=0.5;" vertex="1" parent="1">
          <mxGeometry x="2760" y="357" width="120" height="40" as="geometry" />
        </mxCell>
        <mxCell id="pfrxggrQu1NVtK-rekbp-78" value="" style="shape=parallelogram;perimeter=parallelogramPerimeter;whiteSpace=wrap;html=1;fixedSize=1;size=39;shadow=1;fillColor=#C5E0B3;strokeWidth=0.5;" vertex="1" parent="1">
          <mxGeometry x="2240" y="397" width="120" height="40" as="geometry" />
        </mxCell>
        <mxCell id="pfrxggrQu1NVtK-rekbp-79" value="" style="shape=parallelogram;perimeter=parallelogramPerimeter;whiteSpace=wrap;html=1;fixedSize=1;size=39;shadow=1;fillColor=#C5E0B3;strokeWidth=0.5;" vertex="1" parent="1">
          <mxGeometry x="2320" y="397" width="120" height="40" as="geometry" />
        </mxCell>
        <mxCell id="pfrxggrQu1NVtK-rekbp-80" value="" style="shape=parallelogram;perimeter=parallelogramPerimeter;whiteSpace=wrap;html=1;fixedSize=1;size=39;shadow=1;fillColor=#C5E0B3;strokeWidth=0.5;" vertex="1" parent="1">
          <mxGeometry x="2400" y="397" width="120" height="40" as="geometry" />
        </mxCell>
        <mxCell id="pfrxggrQu1NVtK-rekbp-81" value="" style="shape=parallelogram;perimeter=parallelogramPerimeter;whiteSpace=wrap;html=1;fixedSize=1;size=39;shadow=1;fillColor=#C5E0B3;strokeWidth=0.5;" vertex="1" parent="1">
          <mxGeometry x="2480" y="397" width="120" height="40" as="geometry" />
        </mxCell>
        <mxCell id="pfrxggrQu1NVtK-rekbp-82" value="" style="shape=parallelogram;perimeter=parallelogramPerimeter;whiteSpace=wrap;html=1;fixedSize=1;size=39;shadow=1;fillColor=#C5E0B3;strokeWidth=0.5;" vertex="1" parent="1">
          <mxGeometry x="2560" y="397" width="120" height="40" as="geometry" />
        </mxCell>
        <mxCell id="pfrxggrQu1NVtK-rekbp-83" value="" style="shape=parallelogram;perimeter=parallelogramPerimeter;whiteSpace=wrap;html=1;fixedSize=1;size=39;shadow=1;fillColor=#C5E0B3;strokeWidth=0.5;" vertex="1" parent="1">
          <mxGeometry x="2640" y="397" width="120" height="40" as="geometry" />
        </mxCell>
        <mxCell id="pfrxggrQu1NVtK-rekbp-84" value="" style="shape=parallelogram;perimeter=parallelogramPerimeter;whiteSpace=wrap;html=1;fixedSize=1;size=39;shadow=1;fillColor=#C5E0B3;strokeWidth=0.5;" vertex="1" parent="1">
          <mxGeometry x="2720" y="397" width="120" height="40" as="geometry" />
        </mxCell>
        <mxCell id="pfrxggrQu1NVtK-rekbp-85" value="" style="shape=parallelogram;perimeter=parallelogramPerimeter;whiteSpace=wrap;html=1;fixedSize=1;size=39;shadow=1;fillColor=#C5E0B3;strokeWidth=0.5;" vertex="1" parent="1">
          <mxGeometry x="2200" y="437" width="120" height="40" as="geometry" />
        </mxCell>
        <mxCell id="pfrxggrQu1NVtK-rekbp-86" value="" style="shape=parallelogram;perimeter=parallelogramPerimeter;whiteSpace=wrap;html=1;fixedSize=1;size=39;shadow=1;fillColor=#C5E0B3;strokeWidth=0.5;" vertex="1" parent="1">
          <mxGeometry x="2280" y="437" width="120" height="40" as="geometry" />
        </mxCell>
        <mxCell id="pfrxggrQu1NVtK-rekbp-87" value="" style="shape=parallelogram;perimeter=parallelogramPerimeter;whiteSpace=wrap;html=1;fixedSize=1;size=39;shadow=1;fillColor=#C5E0B3;strokeWidth=0.5;" vertex="1" parent="1">
          <mxGeometry x="2360" y="437" width="120" height="40" as="geometry" />
        </mxCell>
        <mxCell id="pfrxggrQu1NVtK-rekbp-88" value="" style="shape=parallelogram;perimeter=parallelogramPerimeter;whiteSpace=wrap;html=1;fixedSize=1;size=39;shadow=1;fillColor=#C5E0B3;strokeWidth=0.5;" vertex="1" parent="1">
          <mxGeometry x="2440" y="437" width="120" height="40" as="geometry" />
        </mxCell>
        <mxCell id="pfrxggrQu1NVtK-rekbp-89" value="" style="shape=parallelogram;perimeter=parallelogramPerimeter;whiteSpace=wrap;html=1;fixedSize=1;size=39;shadow=1;fillColor=#C5E0B3;strokeWidth=0.5;" vertex="1" parent="1">
          <mxGeometry x="2520" y="437" width="120" height="40" as="geometry" />
        </mxCell>
        <mxCell id="pfrxggrQu1NVtK-rekbp-90" value="" style="shape=parallelogram;perimeter=parallelogramPerimeter;whiteSpace=wrap;html=1;fixedSize=1;size=39;shadow=1;fillColor=#C5E0B3;strokeWidth=0.5;" vertex="1" parent="1">
          <mxGeometry x="2600" y="437" width="120" height="40" as="geometry" />
        </mxCell>
        <mxCell id="pfrxggrQu1NVtK-rekbp-91" value="" style="shape=parallelogram;perimeter=parallelogramPerimeter;whiteSpace=wrap;html=1;fixedSize=1;size=39;shadow=1;fillColor=#C5E0B3;strokeWidth=0.5;" vertex="1" parent="1">
          <mxGeometry x="2680" y="437" width="120" height="40" as="geometry" />
        </mxCell>
        <mxCell id="pfrxggrQu1NVtK-rekbp-92" value="" style="shape=parallelogram;perimeter=parallelogramPerimeter;whiteSpace=wrap;html=1;fixedSize=1;size=39;shadow=1;fillColor=#C5E0B3;strokeWidth=0.5;" vertex="1" parent="1">
          <mxGeometry x="2160" y="477" width="120" height="40" as="geometry" />
        </mxCell>
        <mxCell id="pfrxggrQu1NVtK-rekbp-93" value="" style="shape=parallelogram;perimeter=parallelogramPerimeter;whiteSpace=wrap;html=1;fixedSize=1;size=39;shadow=1;fillColor=#C5E0B3;strokeWidth=0.5;" vertex="1" parent="1">
          <mxGeometry x="2240" y="477" width="120" height="40" as="geometry" />
        </mxCell>
        <mxCell id="pfrxggrQu1NVtK-rekbp-94" value="" style="shape=parallelogram;perimeter=parallelogramPerimeter;whiteSpace=wrap;html=1;fixedSize=1;size=39;shadow=1;fillColor=#C5E0B3;strokeWidth=0.5;" vertex="1" parent="1">
          <mxGeometry x="2320" y="477" width="120" height="40" as="geometry" />
        </mxCell>
        <mxCell id="pfrxggrQu1NVtK-rekbp-95" value="" style="shape=parallelogram;perimeter=parallelogramPerimeter;whiteSpace=wrap;html=1;fixedSize=1;size=39;shadow=1;fillColor=#C5E0B3;strokeWidth=0.5;" vertex="1" parent="1">
          <mxGeometry x="2400" y="477" width="120" height="40" as="geometry" />
        </mxCell>
        <mxCell id="pfrxggrQu1NVtK-rekbp-96" value="" style="shape=parallelogram;perimeter=parallelogramPerimeter;whiteSpace=wrap;html=1;fixedSize=1;size=39;shadow=1;fillColor=#C5E0B3;strokeWidth=0.5;" vertex="1" parent="1">
          <mxGeometry x="2480" y="477" width="120" height="40" as="geometry" />
        </mxCell>
        <mxCell id="pfrxggrQu1NVtK-rekbp-97" value="" style="shape=parallelogram;perimeter=parallelogramPerimeter;whiteSpace=wrap;html=1;fixedSize=1;size=39;shadow=1;fillColor=#C5E0B3;strokeWidth=0.5;" vertex="1" parent="1">
          <mxGeometry x="2560" y="477" width="120" height="40" as="geometry" />
        </mxCell>
        <mxCell id="pfrxggrQu1NVtK-rekbp-98" value="" style="shape=parallelogram;perimeter=parallelogramPerimeter;whiteSpace=wrap;html=1;fixedSize=1;size=39;shadow=1;fillColor=#C5E0B3;strokeWidth=0.5;" vertex="1" parent="1">
          <mxGeometry x="2640" y="477" width="120" height="40" as="geometry" />
        </mxCell>
        <mxCell id="pfrxggrQu1NVtK-rekbp-99" value="" style="shape=parallelogram;perimeter=parallelogramPerimeter;whiteSpace=wrap;html=1;fixedSize=1;size=39;shadow=1;fillColor=#C5E0B3;strokeWidth=0.5;" vertex="1" parent="1">
          <mxGeometry x="2120" y="517" width="120" height="40" as="geometry" />
        </mxCell>
        <mxCell id="pfrxggrQu1NVtK-rekbp-100" value="" style="shape=parallelogram;perimeter=parallelogramPerimeter;whiteSpace=wrap;html=1;fixedSize=1;size=39;shadow=1;fillColor=#C5E0B3;strokeWidth=0.5;" vertex="1" parent="1">
          <mxGeometry x="2200" y="517" width="120" height="40" as="geometry" />
        </mxCell>
        <mxCell id="pfrxggrQu1NVtK-rekbp-101" value="" style="shape=parallelogram;perimeter=parallelogramPerimeter;whiteSpace=wrap;html=1;fixedSize=1;size=39;shadow=1;fillColor=#C5E0B3;strokeWidth=0.5;" vertex="1" parent="1">
          <mxGeometry x="2280" y="517" width="120" height="40" as="geometry" />
        </mxCell>
        <mxCell id="pfrxggrQu1NVtK-rekbp-102" value="" style="shape=parallelogram;perimeter=parallelogramPerimeter;whiteSpace=wrap;html=1;fixedSize=1;size=39;shadow=1;fillColor=#C5E0B3;strokeWidth=0.5;" vertex="1" parent="1">
          <mxGeometry x="2360" y="517" width="120" height="40" as="geometry" />
        </mxCell>
        <mxCell id="pfrxggrQu1NVtK-rekbp-103" value="" style="shape=parallelogram;perimeter=parallelogramPerimeter;whiteSpace=wrap;html=1;fixedSize=1;size=39;shadow=1;fillColor=#C5E0B3;strokeWidth=0.5;" vertex="1" parent="1">
          <mxGeometry x="2440" y="517" width="120" height="40" as="geometry" />
        </mxCell>
        <mxCell id="pfrxggrQu1NVtK-rekbp-104" value="" style="shape=parallelogram;perimeter=parallelogramPerimeter;whiteSpace=wrap;html=1;fixedSize=1;size=39;shadow=1;fillColor=#C5E0B3;strokeWidth=0.5;" vertex="1" parent="1">
          <mxGeometry x="2520" y="517" width="120" height="40" as="geometry" />
        </mxCell>
        <mxCell id="pfrxggrQu1NVtK-rekbp-105" value="" style="shape=parallelogram;perimeter=parallelogramPerimeter;whiteSpace=wrap;html=1;fixedSize=1;size=39;shadow=1;fillColor=#C5E0B3;strokeWidth=0.5;" vertex="1" parent="1">
          <mxGeometry x="2600" y="517" width="120" height="40" as="geometry" />
        </mxCell>
        <mxCell id="pfrxggrQu1NVtK-rekbp-106" value="" style="endArrow=none;html=1;rounded=0;entryX=1;entryY=0;entryDx=0;entryDy=0;strokeColor=#538135;strokeWidth=2;" edge="1" parent="1" target="pfrxggrQu1NVtK-rekbp-63">
          <mxGeometry width="50" height="50" relative="1" as="geometry">
            <mxPoint x="2560" as="sourcePoint" />
            <mxPoint x="2610" y="-50" as="targetPoint" />
          </mxGeometry>
        </mxCell>
        <mxCell id="pfrxggrQu1NVtK-rekbp-140" value="" style="endArrow=none;html=1;rounded=0;entryX=0.25;entryY=0;entryDx=0;entryDy=0;dashed=1;strokeColor=#538135;strokeWidth=2;" edge="1" parent="1" target="pfrxggrQu1NVtK-rekbp-57">
          <mxGeometry width="50" height="50" relative="1" as="geometry">
            <mxPoint x="2560" as="sourcePoint" />
            <mxPoint x="2460" y="300" as="targetPoint" />
          </mxGeometry>
        </mxCell>
        <mxCell id="pfrxggrQu1NVtK-rekbp-141" value="" style="endArrow=none;html=1;rounded=0;entryX=0.25;entryY=0;entryDx=0;entryDy=0;strokeColor=#538135;strokeWidth=2;" edge="1" parent="1">
          <mxGeometry width="50" height="50" relative="1" as="geometry">
            <mxPoint x="2560" as="sourcePoint" />
            <mxPoint x="2120" y="557" as="targetPoint" />
          </mxGeometry>
        </mxCell>
        <mxCell id="pfrxggrQu1NVtK-rekbp-168" value="" style="shape=parallelogram;perimeter=parallelogramPerimeter;whiteSpace=wrap;html=1;fixedSize=1;size=39;shadow=1;fillColor=#C5E0B3;strokeWidth=0.5;" vertex="1" parent="1">
          <mxGeometry x="2406" y="198" width="120" height="40" as="geometry" />
        </mxCell>
        <mxCell id="pfrxggrQu1NVtK-rekbp-169" value="" style="shape=parallelogram;perimeter=parallelogramPerimeter;whiteSpace=wrap;html=1;fixedSize=1;size=39;shadow=1;fillColor=#C5E0B3;strokeWidth=0.5;" vertex="1" parent="1">
          <mxGeometry x="2486" y="198" width="120" height="40" as="geometry" />
        </mxCell>
        <mxCell id="pfrxggrQu1NVtK-rekbp-170" value="" style="shape=parallelogram;perimeter=parallelogramPerimeter;whiteSpace=wrap;html=1;fixedSize=1;size=39;shadow=1;fillColor=#C5E0B3;strokeWidth=0.5;" vertex="1" parent="1">
          <mxGeometry x="2566" y="198" width="120" height="40" as="geometry" />
        </mxCell>
        <mxCell id="pfrxggrQu1NVtK-rekbp-171" value="" style="shape=parallelogram;perimeter=parallelogramPerimeter;whiteSpace=wrap;html=1;fixedSize=1;size=39;shadow=1;fillColor=#C5E0B3;strokeWidth=0.5;" vertex="1" parent="1">
          <mxGeometry x="2646" y="198" width="120" height="40" as="geometry" />
        </mxCell>
        <mxCell id="pfrxggrQu1NVtK-rekbp-172" value="" style="shape=parallelogram;perimeter=parallelogramPerimeter;whiteSpace=wrap;html=1;fixedSize=1;size=39;shadow=1;fillColor=#C5E0B3;strokeWidth=0.5;" vertex="1" parent="1">
          <mxGeometry x="2726" y="198" width="120" height="40" as="geometry" />
        </mxCell>
        <mxCell id="pfrxggrQu1NVtK-rekbp-173" value="" style="shape=parallelogram;perimeter=parallelogramPerimeter;whiteSpace=wrap;html=1;fixedSize=1;size=39;shadow=1;fillColor=#C5E0B3;strokeWidth=0.5;" vertex="1" parent="1">
          <mxGeometry x="2366" y="238" width="120" height="40" as="geometry" />
        </mxCell>
        <mxCell id="pfrxggrQu1NVtK-rekbp-174" value="" style="shape=parallelogram;perimeter=parallelogramPerimeter;whiteSpace=wrap;html=1;fixedSize=1;size=39;shadow=1;fillColor=#C5E0B3;strokeWidth=0.5;" vertex="1" parent="1">
          <mxGeometry x="2446" y="238" width="120" height="40" as="geometry" />
        </mxCell>
        <mxCell id="pfrxggrQu1NVtK-rekbp-175" value="" style="shape=parallelogram;perimeter=parallelogramPerimeter;whiteSpace=wrap;html=1;fixedSize=1;size=39;shadow=1;fillColor=#C5E0B3;strokeWidth=0.5;" vertex="1" parent="1">
          <mxGeometry x="2526" y="238" width="120" height="40" as="geometry" />
        </mxCell>
        <mxCell id="pfrxggrQu1NVtK-rekbp-176" value="" style="shape=parallelogram;perimeter=parallelogramPerimeter;whiteSpace=wrap;html=1;fixedSize=1;size=39;shadow=1;fillColor=#C5E0B3;strokeWidth=0.5;" vertex="1" parent="1">
          <mxGeometry x="2606" y="238" width="120" height="40" as="geometry" />
        </mxCell>
        <mxCell id="pfrxggrQu1NVtK-rekbp-177" value="" style="shape=parallelogram;perimeter=parallelogramPerimeter;whiteSpace=wrap;html=1;fixedSize=1;size=39;shadow=1;fillColor=#C5E0B3;strokeWidth=0.5;" vertex="1" parent="1">
          <mxGeometry x="2686" y="238" width="120" height="40" as="geometry" />
        </mxCell>
        <mxCell id="pfrxggrQu1NVtK-rekbp-178" value="" style="shape=parallelogram;perimeter=parallelogramPerimeter;whiteSpace=wrap;html=1;fixedSize=1;size=39;shadow=1;fillColor=#C5E0B3;strokeWidth=0.5;" vertex="1" parent="1">
          <mxGeometry x="2326" y="278" width="120" height="40" as="geometry" />
        </mxCell>
        <mxCell id="pfrxggrQu1NVtK-rekbp-179" value="" style="shape=parallelogram;perimeter=parallelogramPerimeter;whiteSpace=wrap;html=1;fixedSize=1;size=39;shadow=1;fillColor=#C5E0B3;strokeWidth=0.5;" vertex="1" parent="1">
          <mxGeometry x="2406" y="278" width="120" height="40" as="geometry" />
        </mxCell>
        <mxCell id="pfrxggrQu1NVtK-rekbp-180" value="" style="shape=parallelogram;perimeter=parallelogramPerimeter;whiteSpace=wrap;html=1;fixedSize=1;size=39;shadow=1;fillColor=#C5E0B3;strokeWidth=0.5;" vertex="1" parent="1">
          <mxGeometry x="2486" y="278" width="120" height="40" as="geometry" />
        </mxCell>
        <mxCell id="pfrxggrQu1NVtK-rekbp-181" value="" style="shape=parallelogram;perimeter=parallelogramPerimeter;whiteSpace=wrap;html=1;fixedSize=1;size=39;shadow=1;fillColor=#C5E0B3;strokeWidth=0.5;" vertex="1" parent="1">
          <mxGeometry x="2566" y="278" width="120" height="40" as="geometry" />
        </mxCell>
        <mxCell id="pfrxggrQu1NVtK-rekbp-182" value="" style="shape=parallelogram;perimeter=parallelogramPerimeter;whiteSpace=wrap;html=1;fixedSize=1;size=39;shadow=1;fillColor=#C5E0B3;strokeWidth=0.5;" vertex="1" parent="1">
          <mxGeometry x="2646" y="278" width="120" height="40" as="geometry" />
        </mxCell>
        <mxCell id="pfrxggrQu1NVtK-rekbp-183" value="" style="shape=parallelogram;perimeter=parallelogramPerimeter;whiteSpace=wrap;html=1;fixedSize=1;size=39;shadow=1;fillColor=#C5E0B3;strokeWidth=0.5;" vertex="1" parent="1">
          <mxGeometry x="2286" y="318" width="120" height="40" as="geometry" />
        </mxCell>
        <mxCell id="pfrxggrQu1NVtK-rekbp-184" value="" style="shape=parallelogram;perimeter=parallelogramPerimeter;whiteSpace=wrap;html=1;fixedSize=1;size=39;shadow=1;fillColor=#C5E0B3;strokeWidth=0.5;" vertex="1" parent="1">
          <mxGeometry x="2366" y="318" width="120" height="40" as="geometry" />
        </mxCell>
        <mxCell id="pfrxggrQu1NVtK-rekbp-185" value="" style="shape=parallelogram;perimeter=parallelogramPerimeter;whiteSpace=wrap;html=1;fixedSize=1;size=39;shadow=1;fillColor=#C5E0B3;strokeWidth=0.5;" vertex="1" parent="1">
          <mxGeometry x="2446" y="318" width="120" height="40" as="geometry" />
        </mxCell>
        <mxCell id="pfrxggrQu1NVtK-rekbp-186" value="" style="shape=parallelogram;perimeter=parallelogramPerimeter;whiteSpace=wrap;html=1;fixedSize=1;size=39;shadow=1;fillColor=#C5E0B3;strokeWidth=0.5;" vertex="1" parent="1">
          <mxGeometry x="2526" y="318" width="120" height="40" as="geometry" />
        </mxCell>
        <mxCell id="pfrxggrQu1NVtK-rekbp-187" value="" style="shape=parallelogram;perimeter=parallelogramPerimeter;whiteSpace=wrap;html=1;fixedSize=1;size=39;shadow=1;fillColor=#C5E0B3;strokeWidth=0.5;" vertex="1" parent="1">
          <mxGeometry x="2606" y="318" width="120" height="40" as="geometry" />
        </mxCell>
        <mxCell id="pfrxggrQu1NVtK-rekbp-188" value="" style="shape=parallelogram;perimeter=parallelogramPerimeter;whiteSpace=wrap;html=1;fixedSize=1;size=39;shadow=1;fillColor=#C5E0B3;strokeWidth=0.5;" vertex="1" parent="1">
          <mxGeometry x="2246" y="358" width="120" height="40" as="geometry" />
        </mxCell>
        <mxCell id="pfrxggrQu1NVtK-rekbp-189" value="" style="shape=parallelogram;perimeter=parallelogramPerimeter;whiteSpace=wrap;html=1;fixedSize=1;size=39;shadow=1;fillColor=#C5E0B3;strokeWidth=0.5;" vertex="1" parent="1">
          <mxGeometry x="2326" y="358" width="120" height="40" as="geometry" />
        </mxCell>
        <mxCell id="pfrxggrQu1NVtK-rekbp-190" value="" style="shape=parallelogram;perimeter=parallelogramPerimeter;whiteSpace=wrap;html=1;fixedSize=1;size=39;shadow=1;fillColor=#C5E0B3;strokeWidth=0.5;" vertex="1" parent="1">
          <mxGeometry x="2406" y="358" width="120" height="40" as="geometry" />
        </mxCell>
        <mxCell id="pfrxggrQu1NVtK-rekbp-191" value="" style="shape=parallelogram;perimeter=parallelogramPerimeter;whiteSpace=wrap;html=1;fixedSize=1;size=39;shadow=1;fillColor=#C5E0B3;strokeWidth=0.5;" vertex="1" parent="1">
          <mxGeometry x="2486" y="358" width="120" height="40" as="geometry" />
        </mxCell>
        <mxCell id="pfrxggrQu1NVtK-rekbp-192" value="" style="shape=parallelogram;perimeter=parallelogramPerimeter;whiteSpace=wrap;html=1;fixedSize=1;size=39;shadow=1;fillColor=#C5E0B3;strokeWidth=0.5;" vertex="1" parent="1">
          <mxGeometry x="2566" y="358" width="120" height="40" as="geometry" />
        </mxCell>
        <mxCell id="pfrxggrQu1NVtK-rekbp-208" value="" style="shape=parallelogram;perimeter=parallelogramPerimeter;whiteSpace=wrap;html=1;fixedSize=1;size=39;shadow=1;fillColor=#C5E0B3;strokeWidth=0.5;" vertex="1" parent="1">
          <mxGeometry x="2450" y="120" width="120" height="40" as="geometry" />
        </mxCell>
        <mxCell id="pfrxggrQu1NVtK-rekbp-209" value="" style="shape=parallelogram;perimeter=parallelogramPerimeter;whiteSpace=wrap;html=1;fixedSize=1;size=39;shadow=1;fillColor=#C5E0B3;strokeWidth=0.5;" vertex="1" parent="1">
          <mxGeometry x="2530" y="120" width="120" height="40" as="geometry" />
        </mxCell>
        <mxCell id="pfrxggrQu1NVtK-rekbp-210" value="" style="shape=parallelogram;perimeter=parallelogramPerimeter;whiteSpace=wrap;html=1;fixedSize=1;size=39;shadow=1;fillColor=#C5E0B3;strokeWidth=0.5;" vertex="1" parent="1">
          <mxGeometry x="2610" y="120" width="120" height="40" as="geometry" />
        </mxCell>
        <mxCell id="pfrxggrQu1NVtK-rekbp-211" value="" style="shape=parallelogram;perimeter=parallelogramPerimeter;whiteSpace=wrap;html=1;fixedSize=1;size=39;shadow=1;fillColor=#C5E0B3;strokeWidth=0.5;" vertex="1" parent="1">
          <mxGeometry x="2410" y="160" width="120" height="40" as="geometry" />
        </mxCell>
        <mxCell id="pfrxggrQu1NVtK-rekbp-212" value="" style="shape=parallelogram;perimeter=parallelogramPerimeter;whiteSpace=wrap;html=1;fixedSize=1;size=39;shadow=1;fillColor=#C5E0B3;strokeWidth=0.5;" vertex="1" parent="1">
          <mxGeometry x="2490" y="160" width="120" height="40" as="geometry" />
        </mxCell>
        <mxCell id="pfrxggrQu1NVtK-rekbp-213" value="" style="shape=parallelogram;perimeter=parallelogramPerimeter;whiteSpace=wrap;html=1;fixedSize=1;size=39;shadow=1;fillColor=#C5E0B3;strokeWidth=0.5;" vertex="1" parent="1">
          <mxGeometry x="2570" y="160" width="120" height="40" as="geometry" />
        </mxCell>
        <mxCell id="pfrxggrQu1NVtK-rekbp-214" value="" style="shape=parallelogram;perimeter=parallelogramPerimeter;whiteSpace=wrap;html=1;fixedSize=1;size=39;shadow=1;fillColor=#C5E0B3;strokeWidth=0.5;" vertex="1" parent="1">
          <mxGeometry x="2370" y="200" width="120" height="40" as="geometry" />
        </mxCell>
        <mxCell id="pfrxggrQu1NVtK-rekbp-215" value="" style="shape=parallelogram;perimeter=parallelogramPerimeter;whiteSpace=wrap;html=1;fixedSize=1;size=39;shadow=1;fillColor=#C5E0B3;strokeWidth=0.5;" vertex="1" parent="1">
          <mxGeometry x="2450" y="200" width="120" height="40" as="geometry" />
        </mxCell>
        <mxCell id="pfrxggrQu1NVtK-rekbp-216" value="" style="shape=parallelogram;perimeter=parallelogramPerimeter;whiteSpace=wrap;html=1;fixedSize=1;size=39;shadow=1;fillColor=#C5E0B3;strokeWidth=0.5;" vertex="1" parent="1">
          <mxGeometry x="2530" y="200" width="120" height="40" as="geometry" />
        </mxCell>
        <mxCell id="pfrxggrQu1NVtK-rekbp-217" value="" style="shape=parallelogram;perimeter=parallelogramPerimeter;whiteSpace=wrap;html=1;fixedSize=1;size=39;shadow=1;fillColor=#C5E0B3;strokeWidth=0.5;" vertex="1" parent="1">
          <mxGeometry x="2498" y="40" width="120" height="40" as="geometry" />
        </mxCell>
        <mxCell id="pfrxggrQu1NVtK-rekbp-137" value="" style="endArrow=none;html=1;rounded=0;entryX=1;entryY=0;entryDx=0;entryDy=0;strokeColor=#538135;strokeWidth=2;" edge="1" parent="1">
          <mxGeometry width="50" height="50" relative="1" as="geometry">
            <mxPoint x="2560" as="sourcePoint" />
            <mxPoint x="2680" y="554" as="targetPoint" />
          </mxGeometry>
        </mxCell>
        <mxCell id="pfrxggrQu1NVtK-rekbp-218" value="" style="endArrow=classic;html=1;rounded=0;strokeColor=#538135;strokeWidth=3;" edge="1" parent="1">
          <mxGeometry width="50" height="50" relative="1" as="geometry">
            <mxPoint x="2290" y="170" as="sourcePoint" />
            <mxPoint x="2480" y="70" as="targetPoint" />
          </mxGeometry>
        </mxCell>
        <mxCell id="pfrxggrQu1NVtK-rekbp-219" value="" style="group" vertex="1" connectable="0" parent="1">
          <mxGeometry x="1450" y="140" width="840" height="280" as="geometry" />
        </mxCell>
        <mxCell id="pfrxggrQu1NVtK-rekbp-1" value="" style="shape=parallelogram;perimeter=parallelogramPerimeter;whiteSpace=wrap;html=1;fixedSize=1;size=39;shadow=1;fillColor=#E3A5A1;strokeWidth=0.5;" vertex="1" parent="pfrxggrQu1NVtK-rekbp-219">
          <mxGeometry x="240" width="120" height="40" as="geometry" />
        </mxCell>
        <mxCell id="pfrxggrQu1NVtK-rekbp-2" value="" style="shape=parallelogram;perimeter=parallelogramPerimeter;whiteSpace=wrap;html=1;fixedSize=1;size=39;shadow=1;fillColor=#E3A5A1;strokeWidth=0.5;" vertex="1" parent="pfrxggrQu1NVtK-rekbp-219">
          <mxGeometry x="320" width="120" height="40" as="geometry" />
        </mxCell>
        <mxCell id="pfrxggrQu1NVtK-rekbp-3" value="" style="shape=parallelogram;perimeter=parallelogramPerimeter;whiteSpace=wrap;html=1;fixedSize=1;size=39;shadow=1;fillColor=#E3A5A1;strokeWidth=0.5;" vertex="1" parent="pfrxggrQu1NVtK-rekbp-219">
          <mxGeometry x="400" width="120" height="40" as="geometry" />
        </mxCell>
        <mxCell id="pfrxggrQu1NVtK-rekbp-4" value="" style="shape=parallelogram;perimeter=parallelogramPerimeter;whiteSpace=wrap;html=1;fixedSize=1;size=39;shadow=1;fillColor=#E3A5A1;strokeWidth=0.5;" vertex="1" parent="pfrxggrQu1NVtK-rekbp-219">
          <mxGeometry x="480" width="120" height="40" as="geometry" />
        </mxCell>
        <mxCell id="pfrxggrQu1NVtK-rekbp-5" value="" style="shape=parallelogram;perimeter=parallelogramPerimeter;whiteSpace=wrap;html=1;fixedSize=1;size=39;shadow=1;fillColor=#E3A5A1;strokeWidth=0.5;" vertex="1" parent="pfrxggrQu1NVtK-rekbp-219">
          <mxGeometry x="560" width="120" height="40" as="geometry" />
        </mxCell>
        <mxCell id="pfrxggrQu1NVtK-rekbp-6" value="" style="shape=parallelogram;perimeter=parallelogramPerimeter;whiteSpace=wrap;html=1;fixedSize=1;size=39;shadow=1;fillColor=#E3A5A1;strokeWidth=0.5;" vertex="1" parent="pfrxggrQu1NVtK-rekbp-219">
          <mxGeometry x="640" width="120" height="40" as="geometry" />
        </mxCell>
        <mxCell id="pfrxggrQu1NVtK-rekbp-7" value="" style="shape=parallelogram;perimeter=parallelogramPerimeter;whiteSpace=wrap;html=1;fixedSize=1;size=39;shadow=1;fillColor=#E3A5A1;strokeWidth=0.5;" vertex="1" parent="pfrxggrQu1NVtK-rekbp-219">
          <mxGeometry x="720" width="120" height="40" as="geometry" />
        </mxCell>
        <mxCell id="pfrxggrQu1NVtK-rekbp-8" value="" style="shape=parallelogram;perimeter=parallelogramPerimeter;whiteSpace=wrap;html=1;fixedSize=1;size=39;shadow=1;fillColor=#E3A5A1;strokeWidth=0.5;" vertex="1" parent="pfrxggrQu1NVtK-rekbp-219">
          <mxGeometry x="200" y="40" width="120" height="40" as="geometry" />
        </mxCell>
        <mxCell id="pfrxggrQu1NVtK-rekbp-9" value="" style="shape=parallelogram;perimeter=parallelogramPerimeter;whiteSpace=wrap;html=1;fixedSize=1;size=39;shadow=1;fillColor=#E3A5A1;strokeWidth=0.5;" vertex="1" parent="pfrxggrQu1NVtK-rekbp-219">
          <mxGeometry x="280" y="40" width="120" height="40" as="geometry" />
        </mxCell>
        <mxCell id="pfrxggrQu1NVtK-rekbp-10" value="" style="shape=parallelogram;perimeter=parallelogramPerimeter;whiteSpace=wrap;html=1;fixedSize=1;size=39;shadow=1;fillColor=#E3A5A1;strokeWidth=0.5;" vertex="1" parent="pfrxggrQu1NVtK-rekbp-219">
          <mxGeometry x="360" y="40" width="120" height="40" as="geometry" />
        </mxCell>
        <mxCell id="pfrxggrQu1NVtK-rekbp-11" value="" style="shape=parallelogram;perimeter=parallelogramPerimeter;whiteSpace=wrap;html=1;fixedSize=1;size=39;shadow=1;fillColor=#E3A5A1;strokeWidth=0.5;" vertex="1" parent="pfrxggrQu1NVtK-rekbp-219">
          <mxGeometry x="440" y="40" width="120" height="40" as="geometry" />
        </mxCell>
        <mxCell id="pfrxggrQu1NVtK-rekbp-12" value="" style="shape=parallelogram;perimeter=parallelogramPerimeter;whiteSpace=wrap;html=1;fixedSize=1;size=39;shadow=1;fillColor=#E3A5A1;strokeWidth=0.5;" vertex="1" parent="pfrxggrQu1NVtK-rekbp-219">
          <mxGeometry x="520" y="40" width="120" height="40" as="geometry" />
        </mxCell>
        <mxCell id="pfrxggrQu1NVtK-rekbp-13" value="" style="shape=parallelogram;perimeter=parallelogramPerimeter;whiteSpace=wrap;html=1;fixedSize=1;size=39;shadow=1;fillColor=#E3A5A1;strokeWidth=0.5;" vertex="1" parent="pfrxggrQu1NVtK-rekbp-219">
          <mxGeometry x="600" y="40" width="120" height="40" as="geometry" />
        </mxCell>
        <mxCell id="pfrxggrQu1NVtK-rekbp-14" value="" style="shape=parallelogram;perimeter=parallelogramPerimeter;whiteSpace=wrap;html=1;fixedSize=1;size=39;shadow=1;fillColor=#E3A5A1;strokeWidth=0.5;" vertex="1" parent="pfrxggrQu1NVtK-rekbp-219">
          <mxGeometry x="680" y="40" width="120" height="40" as="geometry" />
        </mxCell>
        <mxCell id="pfrxggrQu1NVtK-rekbp-22" value="" style="shape=parallelogram;perimeter=parallelogramPerimeter;whiteSpace=wrap;html=1;fixedSize=1;size=39;shadow=1;fillColor=#E3A5A1;strokeWidth=0.5;" vertex="1" parent="pfrxggrQu1NVtK-rekbp-219">
          <mxGeometry x="160" y="80" width="120" height="40" as="geometry" />
        </mxCell>
        <mxCell id="pfrxggrQu1NVtK-rekbp-23" value="" style="shape=parallelogram;perimeter=parallelogramPerimeter;whiteSpace=wrap;html=1;fixedSize=1;size=39;shadow=1;fillColor=#E3A5A1;strokeWidth=0.5;" vertex="1" parent="pfrxggrQu1NVtK-rekbp-219">
          <mxGeometry x="240" y="80" width="120" height="40" as="geometry" />
        </mxCell>
        <mxCell id="pfrxggrQu1NVtK-rekbp-24" value="" style="shape=parallelogram;perimeter=parallelogramPerimeter;whiteSpace=wrap;html=1;fixedSize=1;size=39;shadow=1;fillColor=#E3A5A1;strokeWidth=0.5;" vertex="1" parent="pfrxggrQu1NVtK-rekbp-219">
          <mxGeometry x="320" y="80" width="120" height="40" as="geometry" />
        </mxCell>
        <mxCell id="pfrxggrQu1NVtK-rekbp-25" value="" style="shape=parallelogram;perimeter=parallelogramPerimeter;whiteSpace=wrap;html=1;fixedSize=1;size=39;shadow=1;fillColor=#E3A5A1;strokeWidth=0.5;" vertex="1" parent="pfrxggrQu1NVtK-rekbp-219">
          <mxGeometry x="400" y="80" width="120" height="40" as="geometry" />
        </mxCell>
        <mxCell id="pfrxggrQu1NVtK-rekbp-26" value="" style="shape=parallelogram;perimeter=parallelogramPerimeter;whiteSpace=wrap;html=1;fixedSize=1;size=39;shadow=1;fillColor=#E3A5A1;strokeWidth=0.5;" vertex="1" parent="pfrxggrQu1NVtK-rekbp-219">
          <mxGeometry x="480" y="80" width="120" height="40" as="geometry" />
        </mxCell>
        <mxCell id="pfrxggrQu1NVtK-rekbp-27" value="" style="shape=parallelogram;perimeter=parallelogramPerimeter;whiteSpace=wrap;html=1;fixedSize=1;size=39;shadow=1;fillColor=#E3A5A1;strokeWidth=0.5;" vertex="1" parent="pfrxggrQu1NVtK-rekbp-219">
          <mxGeometry x="560" y="80" width="120" height="40" as="geometry" />
        </mxCell>
        <mxCell id="pfrxggrQu1NVtK-rekbp-28" value="" style="shape=parallelogram;perimeter=parallelogramPerimeter;whiteSpace=wrap;html=1;fixedSize=1;size=39;shadow=1;fillColor=#E3A5A1;strokeWidth=0.5;" vertex="1" parent="pfrxggrQu1NVtK-rekbp-219">
          <mxGeometry x="640" y="80" width="120" height="40" as="geometry" />
        </mxCell>
        <mxCell id="pfrxggrQu1NVtK-rekbp-29" value="" style="shape=parallelogram;perimeter=parallelogramPerimeter;whiteSpace=wrap;html=1;fixedSize=1;size=39;shadow=1;fillColor=#E3A5A1;strokeWidth=0.5;" vertex="1" parent="pfrxggrQu1NVtK-rekbp-219">
          <mxGeometry x="120" y="120" width="120" height="40" as="geometry" />
        </mxCell>
        <mxCell id="pfrxggrQu1NVtK-rekbp-30" value="" style="shape=parallelogram;perimeter=parallelogramPerimeter;whiteSpace=wrap;html=1;fixedSize=1;size=39;shadow=1;fillColor=#E3A5A1;strokeWidth=0.5;" vertex="1" parent="pfrxggrQu1NVtK-rekbp-219">
          <mxGeometry x="200" y="120" width="120" height="40" as="geometry" />
        </mxCell>
        <mxCell id="pfrxggrQu1NVtK-rekbp-31" value="" style="shape=parallelogram;perimeter=parallelogramPerimeter;whiteSpace=wrap;html=1;fixedSize=1;size=39;shadow=1;fillColor=#E3A5A1;strokeWidth=0.5;" vertex="1" parent="pfrxggrQu1NVtK-rekbp-219">
          <mxGeometry x="280" y="120" width="120" height="40" as="geometry" />
        </mxCell>
        <mxCell id="pfrxggrQu1NVtK-rekbp-32" value="" style="shape=parallelogram;perimeter=parallelogramPerimeter;whiteSpace=wrap;html=1;fixedSize=1;size=39;shadow=1;fillColor=#E3A5A1;strokeWidth=0.5;" vertex="1" parent="pfrxggrQu1NVtK-rekbp-219">
          <mxGeometry x="360" y="120" width="120" height="40" as="geometry" />
        </mxCell>
        <mxCell id="pfrxggrQu1NVtK-rekbp-33" value="" style="shape=parallelogram;perimeter=parallelogramPerimeter;whiteSpace=wrap;html=1;fixedSize=1;size=39;shadow=1;fillColor=#E3A5A1;strokeWidth=0.5;" vertex="1" parent="pfrxggrQu1NVtK-rekbp-219">
          <mxGeometry x="440" y="120" width="120" height="40" as="geometry" />
        </mxCell>
        <mxCell id="pfrxggrQu1NVtK-rekbp-34" value="" style="shape=parallelogram;perimeter=parallelogramPerimeter;whiteSpace=wrap;html=1;fixedSize=1;size=39;shadow=1;fillColor=#E3A5A1;strokeWidth=0.5;" vertex="1" parent="pfrxggrQu1NVtK-rekbp-219">
          <mxGeometry x="520" y="120" width="120" height="40" as="geometry" />
        </mxCell>
        <mxCell id="pfrxggrQu1NVtK-rekbp-35" value="" style="shape=parallelogram;perimeter=parallelogramPerimeter;whiteSpace=wrap;html=1;fixedSize=1;size=39;shadow=1;fillColor=#E3A5A1;strokeWidth=0.5;" vertex="1" parent="pfrxggrQu1NVtK-rekbp-219">
          <mxGeometry x="600" y="120" width="120" height="40" as="geometry" />
        </mxCell>
        <mxCell id="pfrxggrQu1NVtK-rekbp-36" value="" style="shape=parallelogram;perimeter=parallelogramPerimeter;whiteSpace=wrap;html=1;fixedSize=1;size=39;shadow=1;fillColor=#E3A5A1;strokeWidth=0.5;" vertex="1" parent="pfrxggrQu1NVtK-rekbp-219">
          <mxGeometry x="80" y="160" width="120" height="40" as="geometry" />
        </mxCell>
        <mxCell id="pfrxggrQu1NVtK-rekbp-37" value="" style="shape=parallelogram;perimeter=parallelogramPerimeter;whiteSpace=wrap;html=1;fixedSize=1;size=39;shadow=1;fillColor=#E3A5A1;strokeWidth=0.5;" vertex="1" parent="pfrxggrQu1NVtK-rekbp-219">
          <mxGeometry x="160" y="160" width="120" height="40" as="geometry" />
        </mxCell>
        <mxCell id="pfrxggrQu1NVtK-rekbp-38" value="" style="shape=parallelogram;perimeter=parallelogramPerimeter;whiteSpace=wrap;html=1;fixedSize=1;size=39;shadow=1;fillColor=#E3A5A1;strokeWidth=0.5;" vertex="1" parent="pfrxggrQu1NVtK-rekbp-219">
          <mxGeometry x="240" y="160" width="120" height="40" as="geometry" />
        </mxCell>
        <mxCell id="pfrxggrQu1NVtK-rekbp-39" value="" style="shape=parallelogram;perimeter=parallelogramPerimeter;whiteSpace=wrap;html=1;fixedSize=1;size=39;shadow=1;fillColor=#E3A5A1;strokeWidth=0.5;" vertex="1" parent="pfrxggrQu1NVtK-rekbp-219">
          <mxGeometry x="320" y="160" width="120" height="40" as="geometry" />
        </mxCell>
        <mxCell id="pfrxggrQu1NVtK-rekbp-40" value="" style="shape=parallelogram;perimeter=parallelogramPerimeter;whiteSpace=wrap;html=1;fixedSize=1;size=39;shadow=1;fillColor=#E3A5A1;strokeWidth=0.5;" vertex="1" parent="pfrxggrQu1NVtK-rekbp-219">
          <mxGeometry x="400" y="160" width="120" height="40" as="geometry" />
        </mxCell>
        <mxCell id="pfrxggrQu1NVtK-rekbp-41" value="" style="shape=parallelogram;perimeter=parallelogramPerimeter;whiteSpace=wrap;html=1;fixedSize=1;size=39;shadow=1;fillColor=#E3A5A1;strokeWidth=0.5;" vertex="1" parent="pfrxggrQu1NVtK-rekbp-219">
          <mxGeometry x="480" y="160" width="120" height="40" as="geometry" />
        </mxCell>
        <mxCell id="pfrxggrQu1NVtK-rekbp-42" value="" style="shape=parallelogram;perimeter=parallelogramPerimeter;whiteSpace=wrap;html=1;fixedSize=1;size=39;shadow=1;fillColor=#E3A5A1;strokeWidth=0.5;" vertex="1" parent="pfrxggrQu1NVtK-rekbp-219">
          <mxGeometry x="560" y="160" width="120" height="40" as="geometry" />
        </mxCell>
        <mxCell id="pfrxggrQu1NVtK-rekbp-43" value="" style="shape=parallelogram;perimeter=parallelogramPerimeter;whiteSpace=wrap;html=1;fixedSize=1;size=39;shadow=1;fillColor=#E3A5A1;strokeWidth=0.5;" vertex="1" parent="pfrxggrQu1NVtK-rekbp-219">
          <mxGeometry x="40" y="200" width="120" height="40" as="geometry" />
        </mxCell>
        <mxCell id="pfrxggrQu1NVtK-rekbp-44" value="" style="shape=parallelogram;perimeter=parallelogramPerimeter;whiteSpace=wrap;html=1;fixedSize=1;size=39;shadow=1;fillColor=#E3A5A1;strokeWidth=0.5;" vertex="1" parent="pfrxggrQu1NVtK-rekbp-219">
          <mxGeometry x="120" y="200" width="120" height="40" as="geometry" />
        </mxCell>
        <mxCell id="pfrxggrQu1NVtK-rekbp-45" value="" style="shape=parallelogram;perimeter=parallelogramPerimeter;whiteSpace=wrap;html=1;fixedSize=1;size=39;shadow=1;fillColor=#E3A5A1;strokeWidth=0.5;" vertex="1" parent="pfrxggrQu1NVtK-rekbp-219">
          <mxGeometry x="200" y="200" width="120" height="40" as="geometry" />
        </mxCell>
        <mxCell id="pfrxggrQu1NVtK-rekbp-46" value="" style="shape=parallelogram;perimeter=parallelogramPerimeter;whiteSpace=wrap;html=1;fixedSize=1;size=39;shadow=1;fillColor=#E3A5A1;strokeWidth=0.5;" vertex="1" parent="pfrxggrQu1NVtK-rekbp-219">
          <mxGeometry x="280" y="200" width="120" height="40" as="geometry" />
        </mxCell>
        <mxCell id="pfrxggrQu1NVtK-rekbp-47" value="" style="shape=parallelogram;perimeter=parallelogramPerimeter;whiteSpace=wrap;html=1;fixedSize=1;size=39;shadow=1;fillColor=#E3A5A1;strokeWidth=0.5;" vertex="1" parent="pfrxggrQu1NVtK-rekbp-219">
          <mxGeometry x="360" y="200" width="120" height="40" as="geometry" />
        </mxCell>
        <mxCell id="pfrxggrQu1NVtK-rekbp-48" value="" style="shape=parallelogram;perimeter=parallelogramPerimeter;whiteSpace=wrap;html=1;fixedSize=1;size=39;shadow=1;fillColor=#E3A5A1;strokeWidth=0.5;" vertex="1" parent="pfrxggrQu1NVtK-rekbp-219">
          <mxGeometry x="440" y="200" width="120" height="40" as="geometry" />
        </mxCell>
        <mxCell id="pfrxggrQu1NVtK-rekbp-49" value="" style="shape=parallelogram;perimeter=parallelogramPerimeter;whiteSpace=wrap;html=1;fixedSize=1;size=39;shadow=1;fillColor=#E3A5A1;strokeWidth=0.5;" vertex="1" parent="pfrxggrQu1NVtK-rekbp-219">
          <mxGeometry x="520" y="200" width="120" height="40" as="geometry" />
        </mxCell>
        <mxCell id="pfrxggrQu1NVtK-rekbp-50" value="" style="shape=parallelogram;perimeter=parallelogramPerimeter;whiteSpace=wrap;html=1;fixedSize=1;size=39;shadow=1;fillColor=#E3A5A1;strokeWidth=0.5;" vertex="1" parent="pfrxggrQu1NVtK-rekbp-219">
          <mxGeometry y="240" width="120" height="40" as="geometry" />
        </mxCell>
        <mxCell id="pfrxggrQu1NVtK-rekbp-51" value="" style="shape=parallelogram;perimeter=parallelogramPerimeter;whiteSpace=wrap;html=1;fixedSize=1;size=39;shadow=1;fillColor=#E3A5A1;strokeWidth=0.5;" vertex="1" parent="pfrxggrQu1NVtK-rekbp-219">
          <mxGeometry x="80" y="240" width="120" height="40" as="geometry" />
        </mxCell>
        <mxCell id="pfrxggrQu1NVtK-rekbp-52" value="" style="shape=parallelogram;perimeter=parallelogramPerimeter;whiteSpace=wrap;html=1;fixedSize=1;size=39;shadow=1;fillColor=#E3A5A1;strokeWidth=0.5;" vertex="1" parent="pfrxggrQu1NVtK-rekbp-219">
          <mxGeometry x="160" y="240" width="120" height="40" as="geometry" />
        </mxCell>
        <mxCell id="pfrxggrQu1NVtK-rekbp-53" value="" style="shape=parallelogram;perimeter=parallelogramPerimeter;whiteSpace=wrap;html=1;fixedSize=1;size=39;shadow=1;fillColor=#E3A5A1;strokeWidth=0.5;" vertex="1" parent="pfrxggrQu1NVtK-rekbp-219">
          <mxGeometry x="240" y="240" width="120" height="40" as="geometry" />
        </mxCell>
        <mxCell id="pfrxggrQu1NVtK-rekbp-54" value="" style="shape=parallelogram;perimeter=parallelogramPerimeter;whiteSpace=wrap;html=1;fixedSize=1;size=39;shadow=1;fillColor=#E3A5A1;strokeWidth=0.5;" vertex="1" parent="pfrxggrQu1NVtK-rekbp-219">
          <mxGeometry x="320" y="240" width="120" height="40" as="geometry" />
        </mxCell>
        <mxCell id="pfrxggrQu1NVtK-rekbp-55" value="" style="shape=parallelogram;perimeter=parallelogramPerimeter;whiteSpace=wrap;html=1;fixedSize=1;size=39;shadow=1;fillColor=#E3A5A1;strokeWidth=0.5;" vertex="1" parent="pfrxggrQu1NVtK-rekbp-219">
          <mxGeometry x="400" y="240" width="120" height="40" as="geometry" />
        </mxCell>
        <mxCell id="pfrxggrQu1NVtK-rekbp-56" value="" style="shape=parallelogram;perimeter=parallelogramPerimeter;whiteSpace=wrap;html=1;fixedSize=1;size=39;shadow=1;fillColor=#E3A5A1;strokeWidth=0.5;" vertex="1" parent="pfrxggrQu1NVtK-rekbp-219">
          <mxGeometry x="480" y="240" width="120" height="40" as="geometry" />
        </mxCell>
        <mxCell id="pfrxggrQu1NVtK-rekbp-272" value="" style="endArrow=classic;html=1;rounded=0;strokeColor=#538135;strokeWidth=3;" edge="1" parent="pfrxggrQu1NVtK-rekbp-219">
          <mxGeometry width="50" height="50" relative="1" as="geometry">
            <mxPoint x="750" y="140" as="sourcePoint" />
            <mxPoint x="840" y="170" as="targetPoint" />
          </mxGeometry>
        </mxCell>
        <mxCell id="pfrxggrQu1NVtK-rekbp-273" value="" style="endArrow=classic;html=1;rounded=0;strokeColor=#538135;strokeWidth=3;" edge="1" parent="1">
          <mxGeometry width="50" height="50" relative="1" as="geometry">
            <mxPoint x="2140" y="330" as="sourcePoint" />
            <mxPoint x="2190" y="430" as="targetPoint" />
          </mxGeometry>
        </mxCell>
        <mxCell id="pfrxggrQu1NVtK-rekbp-220" value="" style="endArrow=classic;html=1;rounded=0;strokeColor=#538135;strokeWidth=3;" edge="1" parent="1">
          <mxGeometry width="50" height="50" relative="1" as="geometry">
            <mxPoint x="2236" y="230" as="sourcePoint" />
            <mxPoint x="2406" y="190" as="targetPoint" />
          </mxGeometry>
        </mxCell>
      </root>
    </mxGraphModel>
  </diagram>
</mxfile>
